<?xml version="1.0" encoding="UTF-8" standalone="no"?><!DOCTYPE svg PUBLIC "-//W3C//DTD SVG 1.1//EN" "http://www.w3.org/Graphics/SVG/1.1/DTD/svg11.dtd"><svg width="100%" height="100%" viewBox="0 0 55 55" version="1.1" xmlns="http://www.w3.org/2000/svg" xmlns:xlink="http://www.w3.org/1999/xlink" xml:space="preserve" xmlns:serif="http://www.serif.com/" style="fill-rule:evenodd;clip-rule:evenodd;stroke-linejoin:round;stroke-miterlimit:1.41421;"><path d="M2.886,9.634c1.865,-5.321 6.419,-9.71 11.855,-7.652c8.75,3.313 17.288,3.742 25.518,0c6.208,-2.017 12.759,5.717 12.759,12.759l-2.85,26.005c-0.904,7.111 -5.926,12.203 -12.968,12.203c-6.419,-23.958 -12.142,-23.608 -18.704,0.139c-7.042,0 -12.481,-5.37 -13.455,-12.62l-1.145,-9.627l22.04,0l0,-2.434l-22.329,0l-0.157,-1.321l22.486,0l0,-2.433l-22.776,0l-0.157,-1.321l22.933,0l0,-2.434l-23.222,0l-0.157,-1.321l23.379,0l0,-2.434l-23.669,0l-0.157,-1.321l23.826,0l0,-2.434l-23.888,0c0.043,-0.439 0.106,-0.88 0.188,-1.321l23.7,0l0,-2.433l-23.05,0Zm43.47,24.282c4.165,-10.775 4.272,-17.629 3.671,-22.615c-0.615,-5.1 -7.689,-5.453 -6.521,-0.486c3.23,13.747 2.784,12.569 2.85,23.101Z"/></svg>